<svg width="1431" height="517" viewBox="0 0 1431 517" fill="none" xmlns="http://www.w3.org/2000/svg">
<g filter="url(#filter0_d_174_2800)">
<path d="M0 40C0 17.9086 17.9086 0 40 0H1305C1327.09 0 1345 17.9086 1345 40V391C1345 413.091 1327.09 431 1305 431H40C17.9086 431 0 413.091 0 391V40Z" fill="url(#paint0_linear_174_2800)" fill-opacity="0.1" shape-rendering="crispEdges"/>
<path d="M1.5 40C1.5 18.737 18.737 1.5 40 1.5H1305C1326.26 1.5 1343.5 18.737 1343.5 40V391C1343.5 412.263 1326.26 429.5 1305 429.5H40C18.7371 429.5 1.5 412.263 1.5 391V40Z" stroke="url(#paint1_linear_174_2800)" stroke-width="3" shape-rendering="crispEdges"/>
</g>
<defs>
<filter id="filter0_d_174_2800" x="0" y="0" width="1431" height="517" filterUnits="userSpaceOnUse" color-interpolation-filters="sRGB">
<feFlood flood-opacity="0" result="BackgroundImageFix"/>
<feColorMatrix in="SourceAlpha" type="matrix" values="0 0 0 0 0 0 0 0 0 0 0 0 0 0 0 0 0 0 127 0" result="hardAlpha"/>
<feOffset dx="46" dy="46"/>
<feGaussianBlur stdDeviation="20"/>
<feComposite in2="hardAlpha" operator="out"/>
<feColorMatrix type="matrix" values="0 0 0 0 0 0 0 0 0 0 0 0 0 0 0 0 0 0 0.25 0"/>
<feBlend mode="normal" in2="BackgroundImageFix" result="effect1_dropShadow_174_2800"/>
<feBlend mode="normal" in="SourceGraphic" in2="effect1_dropShadow_174_2800" result="shape"/>
</filter>
<linearGradient id="paint0_linear_174_2800" x1="1.90375e-05" y1="13.2432" x2="791.856" y2="896.974" gradientUnits="userSpaceOnUse">
<stop stop-color="white"/>
<stop offset="1" stop-color="white" stop-opacity="0"/>
</linearGradient>
<linearGradient id="paint1_linear_174_2800" x1="0" y1="0" x2="664.505" y2="921.639" gradientUnits="userSpaceOnUse">
<stop stop-color="#FFE7E7" stop-opacity="0.46"/>
<stop offset="0.0730497" stop-color="white" stop-opacity="0.47"/>
<stop offset="0.239583" stop-opacity="0"/>
<stop offset="0.578125" stop-color="white" stop-opacity="0.3"/>
<stop offset="0.812781" stop-color="#7381FF" stop-opacity="0.45"/>
<stop offset="1" stop-color="#000749" stop-opacity="0.31"/>
</linearGradient>
</defs>
</svg>
