<svg width="158" height="168" viewBox="0 0 158 168" fill="none" xmlns="http://www.w3.org/2000/svg">
<g filter="url(#filter0_dd_136_74)">
<rect x="107.547" y="112.547" width="57.0938" height="57.0937" rx="28.5469" transform="rotate(-180 107.547 112.547)" fill="url(#paint0_linear_136_74)"/>
</g>
<g filter="url(#filter1_f_136_74)">
<rect x="108" y="113" width="58" height="58" rx="29" transform="rotate(-180 108 113)" fill="url(#paint1_linear_136_74)"/>
</g>
<g filter="url(#filter2_f_136_74)">
<rect x="106.188" y="111.188" width="54.375" height="54.375" rx="27.1875" transform="rotate(-180 106.188 111.188)" fill="url(#paint2_linear_136_74)"/>
<rect x="105.688" y="110.687" width="53.375" height="53.375" rx="26.6875" transform="rotate(-180 105.688 110.687)" stroke="#6F4D10"/>
</g>
<path d="M92 98L92 94.875C92 93.2174 91.3415 91.6277 90.1694 90.4556C88.9973 89.2835 87.4076 88.625 85.75 88.625H73.2501C71.5925 88.625 70.0027 89.2835 68.8306 90.4556C67.6585 91.6277 67.0001 93.2174 67.0001 94.875L67.0001 98" stroke="white" stroke-width="2" stroke-linecap="round" stroke-linejoin="round"/>
<path d="M79.5049 82.375C82.9567 82.375 85.7549 79.5768 85.7549 76.1251C85.7549 72.6733 82.9567 69.8751 79.5049 69.8751C76.0532 69.8751 73.2549 72.6733 73.2549 76.1251C73.2549 79.5768 76.0532 82.375 79.5049 82.375Z" stroke="white" stroke-width="2" stroke-linecap="round" stroke-linejoin="round"/>
<defs>
<filter id="filter0_dd_136_74" x="0.453125" y="0.453125" width="157.094" height="167.094" filterUnits="userSpaceOnUse" color-interpolation-filters="sRGB">
<feFlood flood-opacity="0" result="BackgroundImageFix"/>
<feColorMatrix in="SourceAlpha" type="matrix" values="0 0 0 0 0 0 0 0 0 0 0 0 0 0 0 0 0 0 127 0" result="hardAlpha"/>
<feOffset dx="-10" dy="-15"/>
<feGaussianBlur stdDeviation="20"/>
<feColorMatrix type="matrix" values="0 0 0 0 0.183073 0 0 0 0 0.224583 0 0 0 0 0.2375 0 0 0 1 0"/>
<feBlend mode="normal" in2="BackgroundImageFix" result="effect1_dropShadow_136_74"/>
<feColorMatrix in="SourceAlpha" type="matrix" values="0 0 0 0 0 0 0 0 0 0 0 0 0 0 0 0 0 0 127 0" result="hardAlpha"/>
<feOffset dx="10" dy="15"/>
<feGaussianBlur stdDeviation="20"/>
<feColorMatrix type="matrix" values="0 0 0 0 0 0 0 0 0 0 0 0 0 0 0 0 0 0 1 0"/>
<feBlend mode="normal" in2="effect1_dropShadow_136_74" result="effect2_dropShadow_136_74"/>
<feBlend mode="normal" in="SourceGraphic" in2="effect2_dropShadow_136_74" result="shape"/>
</filter>
<filter id="filter1_f_136_74" x="49" y="54" width="60" height="60" filterUnits="userSpaceOnUse" color-interpolation-filters="sRGB">
<feFlood flood-opacity="0" result="BackgroundImageFix"/>
<feBlend mode="normal" in="SourceGraphic" in2="BackgroundImageFix" result="shape"/>
<feGaussianBlur stdDeviation="0.5" result="effect1_foregroundBlur_136_74"/>
</filter>
<filter id="filter2_f_136_74" x="50.8125" y="55.8125" width="56.375" height="56.375" filterUnits="userSpaceOnUse" color-interpolation-filters="sRGB">
<feFlood flood-opacity="0" result="BackgroundImageFix"/>
<feBlend mode="normal" in="SourceGraphic" in2="BackgroundImageFix" result="shape"/>
<feGaussianBlur stdDeviation="0.5" result="effect1_foregroundBlur_136_74"/>
</filter>
<linearGradient id="paint0_linear_136_74" x1="154.909" y1="163.153" x2="116.63" y2="120.332" gradientUnits="userSpaceOnUse">
<stop stop-color="#11A8FD"/>
<stop offset="1" stop-color="#0081C9"/>
</linearGradient>
<linearGradient id="paint1_linear_136_74" x1="155.85" y1="163.75" x2="119.6" y2="119.525" gradientUnits="userSpaceOnUse">
<stop stop-color="#CEB383"/>
<stop offset="1" stop-color="#EFE3D0"/>
</linearGradient>
<linearGradient id="paint2_linear_136_74" x1="151.047" y1="158.766" x2="117.063" y2="117.305" gradientUnits="userSpaceOnUse">
<stop stop-color="#896E3E"/>
<stop offset="1" stop-color="#D2AE6D"/>
</linearGradient>
</defs>
</svg>
