<svg width="158" height="168" viewBox="0 0 158 168" fill="none" xmlns="http://www.w3.org/2000/svg">
<g filter="url(#filter0_dd_86_151)">
<rect x="107.547" y="112.547" width="57.0938" height="57.0937" rx="28.5469" transform="rotate(-180 107.547 112.547)" fill="url(#paint0_linear_86_151)"/>
</g>
<g filter="url(#filter1_f_86_151)">
<rect x="108" y="113" width="58" height="58" rx="29" transform="rotate(-180 108 113)" fill="url(#paint1_linear_86_151)"/>
</g>
<g filter="url(#filter2_f_86_151)">
<rect x="106.188" y="111.188" width="54.375" height="54.375" rx="27.1875" transform="rotate(-180 106.188 111.188)" fill="url(#paint2_linear_86_151)"/>
<rect x="105.688" y="110.687" width="53.375" height="53.375" rx="26.6875" transform="rotate(-180 105.688 110.687)" stroke="#6F4D10"/>
</g>
<path d="M79.002 87.8172C81.1107 87.8172 82.8201 86.1077 82.8201 83.999C82.8201 81.8902 81.1107 80.1808 79.002 80.1808C76.8932 80.1808 75.1838 81.8902 75.1838 83.999C75.1838 86.1077 76.8932 87.8172 79.002 87.8172Z" stroke="white" stroke-width="2" stroke-linecap="round" stroke-linejoin="round"/>
<path d="M88.4182 87.8182C88.2488 88.2021 88.1982 88.6279 88.2731 89.0407C88.3479 89.4536 88.5448 89.8346 88.8382 90.1345L88.9145 90.2109C89.1512 90.4473 89.339 90.728 89.4671 91.0371C89.5952 91.3461 89.6611 91.6773 89.6611 92.0118C89.6611 92.3463 89.5952 92.6776 89.4671 92.9866C89.339 93.2956 89.1512 93.5763 88.9145 93.8127C88.6781 94.0494 88.3974 94.2371 88.0884 94.3652C87.7794 94.4933 87.4481 94.5593 87.1136 94.5593C86.7791 94.5593 86.4479 94.4933 86.1389 94.3652C85.8299 94.2371 85.5491 94.0494 85.3127 93.8127L85.2364 93.7364C84.9364 93.443 84.5554 93.2461 84.1426 93.1713C83.7297 93.0964 83.3039 93.1469 82.92 93.3164C82.5436 93.4777 82.2225 93.7456 81.9964 94.087C81.7703 94.4285 81.6489 94.8286 81.6473 95.2382V95.4545C81.6473 96.1296 81.3791 96.7771 80.9017 97.2545C80.4244 97.7318 79.7769 98 79.1018 98C78.4267 98 77.7793 97.7318 77.3019 97.2545C76.8245 96.7771 76.5564 96.1296 76.5564 95.4545V95.34C76.5465 94.9187 76.4102 94.5102 76.165 94.1674C75.9199 93.8247 75.5773 93.5636 75.1818 93.4182C74.7979 93.2488 74.3721 93.1982 73.9593 93.2731C73.5464 93.3479 73.1654 93.5448 72.8655 93.8382L72.7891 93.9145C72.5527 94.1512 72.272 94.339 71.9629 94.4671C71.6539 94.5952 71.3227 94.6611 70.9882 94.6611C70.6537 94.6611 70.3224 94.5952 70.0134 94.4671C69.7044 94.339 69.4237 94.1512 69.1873 93.9145C68.9506 93.6781 68.7629 93.3974 68.6348 93.0884C68.5067 92.7794 68.4407 92.4481 68.4407 92.1136C68.4407 91.7791 68.5067 91.4479 68.6348 91.1389C68.7629 90.8299 68.9506 90.5491 69.1873 90.3127L69.2636 90.2364C69.557 89.9364 69.7539 89.5554 69.8287 89.1426C69.9036 88.7297 69.8531 88.3039 69.6836 87.92C69.5223 87.5436 69.2544 87.2225 68.913 86.9964C68.5715 86.7703 68.1714 86.6489 67.7618 86.6473H67.5455C66.8704 86.6473 66.2229 86.3791 65.7455 85.9017C65.2682 85.4244 65 84.7769 65 84.1018C65 83.4267 65.2682 82.7793 65.7455 82.3019C66.2229 81.8245 66.8704 81.5564 67.5455 81.5564H67.66C68.0813 81.5465 68.4898 81.4102 68.8326 81.165C69.1753 80.9199 69.4364 80.5773 69.5818 80.1818C69.7512 79.7979 69.8018 79.3721 69.7269 78.9593C69.6521 78.5464 69.4552 78.1654 69.1618 77.8655L69.0855 77.7891C68.8488 77.5527 68.661 77.272 68.5329 76.9629C68.4048 76.6539 68.3389 76.3227 68.3389 75.9882C68.3389 75.6537 68.4048 75.3224 68.5329 75.0134C68.661 74.7044 68.8488 74.4237 69.0855 74.1873C69.3219 73.9506 69.6026 73.7629 69.9116 73.6348C70.2206 73.5067 70.5519 73.4407 70.8864 73.4407C71.2209 73.4407 71.5521 73.5067 71.8611 73.6348C72.1701 73.7629 72.4509 73.9506 72.6873 74.1873L72.7636 74.2636C73.0636 74.557 73.4446 74.7539 73.8574 74.8287C74.2703 74.9036 74.6961 74.8531 75.08 74.6836H75.1818C75.5583 74.5223 75.8793 74.2544 76.1054 73.913C76.3316 73.5715 76.4529 73.1714 76.4545 72.7618V72.5455C76.4545 71.8704 76.7227 71.2229 77.2001 70.7455C77.6775 70.2682 78.3249 70 79 70C79.6751 70 80.3225 70.2682 80.7999 70.7455C81.2773 71.2229 81.5455 71.8704 81.5455 72.5455V72.66C81.5471 73.0695 81.6684 73.4697 81.8946 73.8111C82.1207 74.1526 82.4417 74.4205 82.8182 74.5818C83.2021 74.7512 83.6279 74.8018 84.0407 74.7269C84.4536 74.6521 84.8346 74.4552 85.1345 74.1618L85.2109 74.0855C85.4473 73.8488 85.728 73.661 86.0371 73.5329C86.3461 73.4048 86.6773 73.3389 87.0118 73.3389C87.3463 73.3389 87.6776 73.4048 87.9866 73.5329C88.2956 73.661 88.5763 73.8488 88.8127 74.0855C89.0494 74.3219 89.2371 74.6026 89.3652 74.9116C89.4933 75.2206 89.5593 75.5519 89.5593 75.8864C89.5593 76.2209 89.4933 76.5521 89.3652 76.8611C89.2371 77.1701 89.0494 77.4509 88.8127 77.6873L88.7364 77.7636C88.443 78.0636 88.2461 78.4446 88.1713 78.8574C88.0964 79.2703 88.1469 79.6961 88.3164 80.08V80.1818C88.4777 80.5583 88.7456 80.8793 89.087 81.1054C89.4285 81.3316 89.8286 81.4529 90.2382 81.4545H90.4545C91.1296 81.4545 91.7771 81.7227 92.2545 82.2001C92.7318 82.6775 93 83.3249 93 84C93 84.6751 92.7318 85.3225 92.2545 85.7999C91.7771 86.2773 91.1296 86.5455 90.4545 86.5455H90.34C89.9305 86.5471 89.5303 86.6684 89.1889 86.8946C88.8474 87.1207 88.5795 87.4417 88.4182 87.8182V87.8182Z" stroke="white" stroke-width="2" stroke-linecap="round" stroke-linejoin="round"/>
<defs>
<filter id="filter0_dd_86_151" x="0.453125" y="0.453125" width="157.094" height="167.094" filterUnits="userSpaceOnUse" color-interpolation-filters="sRGB">
<feFlood flood-opacity="0" result="BackgroundImageFix"/>
<feColorMatrix in="SourceAlpha" type="matrix" values="0 0 0 0 0 0 0 0 0 0 0 0 0 0 0 0 0 0 127 0" result="hardAlpha"/>
<feOffset dx="-10" dy="-15"/>
<feGaussianBlur stdDeviation="20"/>
<feColorMatrix type="matrix" values="0 0 0 0 0.183073 0 0 0 0 0.224583 0 0 0 0 0.2375 0 0 0 1 0"/>
<feBlend mode="normal" in2="BackgroundImageFix" result="effect1_dropShadow_86_151"/>
<feColorMatrix in="SourceAlpha" type="matrix" values="0 0 0 0 0 0 0 0 0 0 0 0 0 0 0 0 0 0 127 0" result="hardAlpha"/>
<feOffset dx="10" dy="15"/>
<feGaussianBlur stdDeviation="20"/>
<feColorMatrix type="matrix" values="0 0 0 0 0 0 0 0 0 0 0 0 0 0 0 0 0 0 1 0"/>
<feBlend mode="normal" in2="effect1_dropShadow_86_151" result="effect2_dropShadow_86_151"/>
<feBlend mode="normal" in="SourceGraphic" in2="effect2_dropShadow_86_151" result="shape"/>
</filter>
<filter id="filter1_f_86_151" x="49" y="54" width="60" height="60" filterUnits="userSpaceOnUse" color-interpolation-filters="sRGB">
<feFlood flood-opacity="0" result="BackgroundImageFix"/>
<feBlend mode="normal" in="SourceGraphic" in2="BackgroundImageFix" result="shape"/>
<feGaussianBlur stdDeviation="0.5" result="effect1_foregroundBlur_86_151"/>
</filter>
<filter id="filter2_f_86_151" x="50.8125" y="55.8125" width="56.375" height="56.375" filterUnits="userSpaceOnUse" color-interpolation-filters="sRGB">
<feFlood flood-opacity="0" result="BackgroundImageFix"/>
<feBlend mode="normal" in="SourceGraphic" in2="BackgroundImageFix" result="shape"/>
<feGaussianBlur stdDeviation="0.5" result="effect1_foregroundBlur_86_151"/>
</filter>
<linearGradient id="paint0_linear_86_151" x1="154.909" y1="163.153" x2="116.63" y2="120.332" gradientUnits="userSpaceOnUse">
<stop stop-color="#11A8FD"/>
<stop offset="1" stop-color="#0081C9"/>
</linearGradient>
<linearGradient id="paint1_linear_86_151" x1="155.85" y1="163.75" x2="119.6" y2="119.525" gradientUnits="userSpaceOnUse">
<stop stop-color="#CEB383"/>
<stop offset="1" stop-color="#EFE3D0"/>
</linearGradient>
<linearGradient id="paint2_linear_86_151" x1="151.047" y1="158.766" x2="117.063" y2="117.305" gradientUnits="userSpaceOnUse">
<stop stop-color="#896E3E"/>
<stop offset="1" stop-color="#D2AE6D"/>
</linearGradient>
</defs>
</svg>
