<svg width="20" height="20" viewBox="0 0 20 20" fill="none" xmlns="http://www.w3.org/2000/svg">
<path d="M17.9012 14.0999V16.5999C17.9021 16.832 17.8557 17.0617 17.7649 17.2744C17.6741 17.487 17.541 17.6779 17.374 17.8348C17.207 17.9917 17.0099 18.1112 16.7952 18.1855C16.5805 18.2599 16.353 18.2875 16.1273 18.2666C13.6235 17.988 11.2183 17.1117 9.10518 15.7083C7.13916 14.4288 5.47232 12.7217 4.22302 10.7083C2.84787 8.53426 1.99208 6.05908 1.72499 3.48325C1.70465 3.25281 1.7314 3.02055 1.80351 2.80127C1.87562 2.58199 1.99153 2.38049 2.14385 2.2096C2.29617 2.03871 2.48156 1.90218 2.68823 1.80869C2.8949 1.7152 3.11831 1.6668 3.34424 1.66658H5.78531C6.1802 1.6626 6.56303 1.80582 6.86245 2.06953C7.16186 2.33324 7.35743 2.69946 7.4127 3.09992C7.51573 3.89997 7.70681 4.68552 7.98228 5.44158C8.09176 5.73985 8.11545 6.06401 8.05056 6.37565C7.98566 6.68729 7.83489 6.97334 7.61612 7.19992L6.58273 8.25825C7.74107 10.3445 9.42777 12.072 11.4649 13.2583L12.4983 12.1999C12.7195 11.9759 12.9988 11.8215 13.3031 11.755C13.6074 11.6885 13.9239 11.7128 14.2152 11.8249C14.9534 12.107 15.7204 12.3027 16.5016 12.4083C16.8969 12.4654 17.2579 12.6693 17.5159 12.9812C17.774 13.2931 17.9111 13.6912 17.9012 14.0999Z" stroke="white" stroke-width="2" stroke-linecap="round" stroke-linejoin="round"/>
</svg>
