<svg width="564" height="373" viewBox="0 0 564 373" fill="none" xmlns="http://www.w3.org/2000/svg">
<g filter="url(#filter0_d_62_11541)">
<path d="M0.5 40.7168C0.5 18.6254 18.4086 0.716797 40.5 0.716797H437.5C459.591 0.716797 477.5 18.6254 477.5 40.7168V246.566C477.5 268.657 459.591 286.566 437.5 286.566H40.5C18.4086 286.566 0.5 268.657 0.5 246.566V40.7168Z" fill="url(#paint0_linear_62_11541)" fill-opacity="0.1" shape-rendering="crispEdges"/>
<path d="M2 40.7168C2 19.4538 19.237 2.2168 40.5 2.2168H437.5C458.763 2.2168 476 19.4538 476 40.7168V246.566C476 267.829 458.763 285.066 437.5 285.066H40.5C19.237 285.066 2 267.829 2 246.566V40.7168Z" stroke="url(#paint1_linear_62_11541)" stroke-width="3" shape-rendering="crispEdges"/>
</g>
<defs>
<filter id="filter0_d_62_11541" x="0.5" y="0.716797" width="563" height="371.849" filterUnits="userSpaceOnUse" color-interpolation-filters="sRGB">
<feFlood flood-opacity="0" result="BackgroundImageFix"/>
<feColorMatrix in="SourceAlpha" type="matrix" values="0 0 0 0 0 0 0 0 0 0 0 0 0 0 0 0 0 0 127 0" result="hardAlpha"/>
<feOffset dx="46" dy="46"/>
<feGaussianBlur stdDeviation="20"/>
<feComposite in2="hardAlpha" operator="out"/>
<feColorMatrix type="matrix" values="0 0 0 0 0 0 0 0 0 0 0 0 0 0 0 0 0 0 0.25 0"/>
<feBlend mode="normal" in2="BackgroundImageFix" result="effect1_dropShadow_62_11541"/>
<feBlend mode="normal" in="SourceGraphic" in2="effect1_dropShadow_62_11541" result="shape"/>
</filter>
<linearGradient id="paint0_linear_62_11541" x1="0.500007" y1="9.49999" x2="465.5" y2="287" gradientUnits="userSpaceOnUse">
<stop stop-color="white"/>
<stop offset="1" stop-color="white" stop-opacity="0"/>
</linearGradient>
<linearGradient id="paint1_linear_62_11541" x1="0.5" y1="0.716797" x2="445.003" y2="330.383" gradientUnits="userSpaceOnUse">
<stop stop-color="#FFE7E7" stop-opacity="0.46"/>
<stop offset="0.0730497" stop-color="white" stop-opacity="0.47"/>
<stop offset="0.239583" stop-opacity="0"/>
<stop offset="0.578125" stop-color="white" stop-opacity="0.3"/>
<stop offset="0.812781" stop-color="#7381FF" stop-opacity="0.45"/>
<stop offset="1" stop-color="#000749" stop-opacity="0.31"/>
</linearGradient>
</defs>
</svg>
