<svg width="37" height="34" viewBox="0 0 37 34" fill="none" xmlns="http://www.w3.org/2000/svg">
<g opacity="0.75">
<path fill-rule="evenodd" clip-rule="evenodd" d="M5 15.5C5 9.70101 9.701 5 15.5 5C21.299 5 26 9.70101 26 15.5C26 18.329 24.8812 20.8966 23.062 22.7847C23.0107 22.8241 22.9613 22.8674 22.9144 22.9143C22.8674 22.9613 22.8241 23.0107 22.7847 23.0619C20.8966 24.8812 18.329 26 15.5 26C9.701 26 5 21.299 5 15.5ZM23.9265 26.0478C21.617 27.8953 18.6875 29 15.5 29C8.04415 29 2 22.9558 2 15.5C2 8.04416 8.04415 2 15.5 2C22.9558 2 29 8.04416 29 15.5C29 18.6875 27.8953 21.617 26.0478 23.9265L31.5607 29.4393C32.1464 30.0251 32.1464 30.9749 31.5607 31.5607C30.9749 32.1464 30.0251 32.1464 29.4393 31.5607L23.9265 26.0478Z" fill="white"/>
</g>
</svg>
